# xmcd
#
# Track frame offsets:
#	182
#	13607
#	24605
#	33490
#	46320
#	63712
#	75267
#	86615
#	98870
#	112432
#	123555
#	136262
#	145882
#	160012
#	172777
#	183655
#	193247
#	211860
#	223467
#	236867
#
# Disc length: 3333
#
# Revision: 1
# Processed by: cddbd v1.5.1PL0 Copyright (c) Steve Scherf et al.
# Submitted via: dBpowerAMP V4.0
# Normalized: r0:TDELIM( - )
#
DISCID=260d0314
DTITLE=Various Artist - American R&B Hits
DYEAR=1994
DGENRE=R&B
TTITLE0=Little Junior Parker - Feelin' Good
TTITLE1=Benny Spellman - Lipstick Traces
TTITLE2=Chris Kenner - I Like It Like That
TTITLE3=Fontella Bass and Bobby McClure - Don't Mess Up A Good Thing
TTITLE4=Johnny Adams - Reconsider Me
TTITLE5=Alvin Robinson - Somthin' You Got
TTITLE6=Bobby Moore and The Rythm Aces - Searching For My Love
TTITLE7=Laura Lee - Up Tight, Good Man
TTITLE8=Little Milton - Who's Cheating Who
TTITLE9=Ernie K. Doe - Mother-In-Law
TTITLE10=Bobby Marchan - There's Something On Your Mind Part 2
TTITLE11=Gene Allison - You Can Make It If You Try
TTITLE12=Inez and Charlie Foxx - Hurt By Love
TTITLE13=Lee Dorsey - Ride Your Pony
TTITLE14=Betty Everet - I Can't Hear You
TTITLE15=Rosco Gordon - Just A Little Bit
TTITLE16=Little Richard - I Don't Know What You've Got ( But It's Got Me)
TTITLE17=Irma Thomas - Good To Me
TTITLE18=Buster Brown - Fannie Mae
TTITLE19=Jackie Wilson - Baby Workout
EXTD=
EXTT0=
EXTT1=
EXTT2=
EXTT3=
EXTT4=
EXTT5=
EXTT6=
EXTT7=
EXTT8=
EXTT9=
EXTT10=
EXTT11=
EXTT12=
EXTT13=
EXTT14=
EXTT15=
EXTT16=
EXTT17=
EXTT18=
EXTT19=
PLAYORDER=
